<?xml version="1.0" encoding="UTF-8" standalone="no"?>
<!-- Created with Inkscape (http://www.inkscape.org/) -->
<svg
   xmlns:dc="http://purl.org/dc/elements/1.1/"
   xmlns:cc="http://web.resource.org/cc/"
   xmlns:rdf="http://www.w3.org/1999/02/22-rdf-syntax-ns#"
   xmlns:svg="http://www.w3.org/2000/svg"
   xmlns="http://www.w3.org/2000/svg"
   xmlns:xlink="http://www.w3.org/1999/xlink"
   xmlns:sodipodi="http://inkscape.sourceforge.net/DTD/sodipodi-0.dtd"
   xmlns:inkscape="http://www.inkscape.org/namespaces/inkscape"
   width="64px"
   height="64px"
   id="svg1306"
   sodipodi:version="0.32"
   inkscape:version="0.43"
   sodipodi:docbase="/home/floam"
   sodipodi:docname="quake3.svg">
  <defs
     id="defs1308">
    <linearGradient
       id="linearGradient2180">
      <stop
         style="stop-color:#ff0000;stop-opacity:1;"
         offset="0"
         id="stop2182" />
      <stop
         style="stop-color:#590000;stop-opacity:1;"
         offset="1"
         id="stop2184" />
    </linearGradient>
    <linearGradient
       inkscape:collect="always"
       xlink:href="#linearGradient2180"
       id="linearGradient2190"
       x1="14.860399"
       y1="19.054131"
       x2="15.042735"
       y2="59"
       gradientUnits="userSpaceOnUse" />
    <linearGradient
       inkscape:collect="always"
       xlink:href="#linearGradient2180"
       id="linearGradient2194"
       gradientUnits="userSpaceOnUse"
       x1="14.860399"
       y1="19.054131"
       x2="15.042735"
       y2="59" />
    <linearGradient
       inkscape:collect="always"
       xlink:href="#linearGradient2180"
       id="linearGradient3077"
       x1="32"
       y1="64.091171"
       x2="32"
       y2="0"
       gradientUnits="userSpaceOnUse" />
  </defs>
  <sodipodi:namedview
     id="base"
     pagecolor="#ffffff"
     bordercolor="#666666"
     borderopacity="1.0"
     inkscape:pageopacity="0.0"
     inkscape:pageshadow="2"
     inkscape:zoom="11.313709"
     inkscape:cx="39.503607"
     inkscape:cy="39.325522"
     inkscape:current-layer="layer1"
     showgrid="true"
     inkscape:document-units="px"
     inkscape:grid-bbox="true"
     showguides="true"
     inkscape:guide-bbox="true"
     inkscape:window-width="997"
     inkscape:window-height="946"
     inkscape:window-x="80"
     inkscape:window-y="25"
     showborder="true" />
  <metadata
     id="metadata1311">
    <rdf:RDF>
      <cc:Work
         rdf:about="">
        <dc:format>image/svg+xml</dc:format>
        <dc:type
           rdf:resource="http://purl.org/dc/dcmitype/StillImage" />
        <cc:license
           rdf:resource="http://creativecommons.org/licenses/GPL/2.0/" />
        <dc:title>Quake3 Icon</dc:title>
        <dc:creator>
          <cc:Agent>
            <dc:title>Aaron Gyes</dc:title>
          </cc:Agent>
        </dc:creator>
        <dc:publisher>
          <cc:Agent>
            <dc:title>icculus.org</dc:title>
          </cc:Agent>
        </dc:publisher>
      </cc:Work>
      <cc:License
         rdf:about="http://creativecommons.org/licenses/GPL/2.0/">
        <cc:permits
           rdf:resource="http://web.resource.org/cc/Reproduction" />
        <cc:permits
           rdf:resource="http://web.resource.org/cc/Distribution" />
        <cc:requires
           rdf:resource="http://web.resource.org/cc/Notice" />
        <cc:permits
           rdf:resource="http://web.resource.org/cc/DerivativeWorks" />
        <cc:requires
           rdf:resource="http://web.resource.org/cc/ShareAlike" />
        <cc:requires
           rdf:resource="http://web.resource.org/cc/SourceCode" />
      </cc:License>
    </rdf:RDF>
  </metadata>
  <g
     id="layer1"
     inkscape:label="Layer 1"
     inkscape:groupmode="layer">
    <path
       id="path1329"
       style="opacity:1;fill:url(#linearGradient3077);fill-opacity:1.0;fill-rule:nonzero;stroke:none;stroke-width:0.5261631;stroke-linecap:butt;stroke-linejoin:miter;stroke-miterlimit:4;stroke-dasharray:none;stroke-opacity:1"
       d="M 34.538626,32.090265 L 32.538627,64 L 30.538626,32 L 32.538627,0 L 34.538626,32.090265 z "
       sodipodi:nodetypes="ccccc" />
    <path
       style="fill:url(#linearGradient2190);fill-opacity:1;fill-rule:nonzero;stroke:none;stroke-width:0.5;stroke-linecap:butt;stroke-linejoin:miter;stroke-miterlimit:4;stroke-dasharray:none;stroke-opacity:1"
       d="M 28.059562,59 L 25.612281,34.036677 C 25.612281,34.036677 2.1281775,31.218199 2.0010765,25.064561 C 1.9155925,21.016997 6.9421265,19.095215 9.6946005,19.095215 C 12.000721,19.095215 4.2082195,19.143464 4.1713675,24.287073 C 4.1405475,28.679913 29.3599,30.346963 29.3599,30.346963 L 28.059562,59 z "
       id="path1307"
       sodipodi:nodetypes="ccssscc" />
    <path
       sodipodi:nodetypes="ccssscc"
       id="path2192"
       d="M 36.940438,59 L 39.387719,34.036677 C 39.387719,34.036677 62.871823,31.218199 62.998924,25.064561 C 63.084408,21.016997 58.057873,19.095215 55.305399,19.095215 C 52.999279,19.095215 60.79178,19.143464 60.828632,24.287073 C 60.859452,28.679913 35.6401,30.346963 35.6401,30.346963 L 36.940438,59 z "
       style="fill:url(#linearGradient2194);fill-opacity:1;fill-rule:nonzero;stroke:none;stroke-width:0.5;stroke-linecap:butt;stroke-linejoin:miter;stroke-miterlimit:4;stroke-dasharray:none;stroke-opacity:1" />
    <path
       id="text3069"
       style="font-size:21.0215435px;font-style:normal;font-variant:normal;font-weight:bold;font-stretch:normal;text-align:start;line-height:100%;writing-mode:lr-tb;text-anchor:start;opacity:0.5;fill:#000000;fill-opacity:1;stroke:none;stroke-width:1px;stroke-linecap:butt;stroke-linejoin:miter;stroke-opacity:1;display:none;font-family:Calibri"
       d="M 2.7970217,18.136472 C 2.7970188,18.224983 2.7811476,18.304644 2.7494084,18.375453 C 2.7176632,18.437411 2.6621143,18.490519 2.5827616,18.534773 C 2.5086936,18.57903 2.4081766,18.610008 2.2812103,18.627711 C 2.1542389,18.654264 1.9928827,18.667542 1.7971411,18.667542 C 1.6013954,18.667542 1.4400392,18.654264 1.3130719,18.627711 C 1.1861015,18.610008 1.0829393,18.57903 1.003585,18.534773 C 0.92951863,18.490519 0.87661497,18.437411 0.84487381,18.375453 C 0.81313049,18.304644 0.79725941,18.224983 0.79726041,18.136472 L 0.79726041,6.3201665 C 0.79725941,6.2316673 0.81313049,6.1564325 0.84487381,6.0944619 C 0.87661497,6.0236651 0.92951863,5.9661326 1.003585,5.9218642 C 1.0829393,5.8687699 1.1861015,5.8289397 1.3130719,5.8023734 C 1.4400392,5.7758327 1.6013954,5.762556 1.7971411,5.7625432 C 1.9928827,5.762556 2.1542389,5.7758327 2.2812103,5.8023734 C 2.4081766,5.8289397 2.5086936,5.8687699 2.5827616,5.9218642 C 2.6621143,5.9661326 2.7176632,6.0236651 2.7494084,6.0944619 C 2.7811476,6.1564325 2.7970188,6.2316673 2.7970217,6.3201665 L 2.7970217,18.136472 M 2.9477974,2.2840355 C 2.9477942,2.9567396 2.8657935,3.4214253 2.701795,3.678094 C 2.5377907,3.9347923 2.2335945,4.0631341 1.7892055,4.0631196 C 1.3395222,4.0631341 1.035326,3.9392179 0.87661605,3.6913707 C 0.72319425,3.4435532 0.6464839,2.9965698 0.64648475,2.3504192 C 0.6464839,1.6777475 0.72583944,1.2130619 0.8845516,0.95636076 C 1.0485519,0.69084372 1.3553933,0.55807637 1.8050766,0.55805834 C 2.2494656,0.55807637 2.5510166,0.68641813 2.7097306,0.94308402 C 2.8684387,1.190934 2.9477942,1.6379174 2.9477974,2.2840355 M 11.954659,12.095551 C 11.954651,13.10459 11.875296,14.02511 11.716592,14.857114 C 11.557873,15.689127 11.317161,16.40607 10.994456,17.007947 C 10.671736,17.609828 10.267023,18.074513 9.7803155,18.402006 C 9.2935952,18.729499 8.7248809,18.893246 8.0741695,18.893246 C 7.4446117,18.893246 6.8970586,18.747202 6.4315088,18.455114 C 5.9659537,18.163026 5.5797568,17.738169 5.2729169,17.180546 C 4.966074,16.622925 4.7385882,15.936959 4.5904586,15.12265 C 4.4423276,14.308347 4.3682624,13.378976 4.3682629,12.334533 C 4.3682624,11.325507 4.4476179,10.404987 4.6063298,9.5729696 C 4.7703304,8.7321188 5.0136874,8.0151752 5.3364013,7.4221366 C 5.6591123,6.8202691 6.0611803,6.3555835 6.5426066,6.0280782 C 7.0293178,5.7005979 7.5980324,5.5368515 8.2487523,5.5368384 C 8.8835918,5.5368515 9.43379,5.6828956 9.8993486,5.9749712 C 10.364895,6.2582207 10.748447,6.6786506 11.050005,7.2362621 C 11.356839,7.7938962 11.584325,8.4798608 11.732464,9.2941579 C 11.880586,10.108473 11.954651,11.04227 11.954659,12.095551 M 9.8993486,12.228319 C 9.8993424,11.644149 9.8702455,11.108654 9.812058,10.621833 C 9.7591477,10.126176 9.6665666,9.6968948 9.5343132,9.3339881 C 9.4020483,8.9711 9.2248207,8.687863 9.0026303,8.4842763 C 8.7857203,8.2807098 8.5106212,8.1789216 8.1773322,8.1789111 C 7.8810668,8.1789216 7.621839,8.2718587 7.3996472,8.4577228 C 7.1774481,8.6347561 6.9949304,8.9002908 6.8520935,9.2543277 C 6.7092505,9.5995321 6.6007979,10.019962 6.5267355,10.515619 C 6.457958,11.00244 6.4235706,11.560063 6.4235732,12.188489 C 6.4235706,12.772671 6.4526676,13.312592 6.5108644,13.808252 C 6.5690557,14.29507 6.6616372,14.719926 6.788609,15.08282 C 6.9208652,15.44572 7.0980926,15.728957 7.3202916,15.932532 C 7.5424835,16.12726 7.8175826,16.224622 8.1455897,16.224619 C 8.4471362,16.224622 8.7090097,16.136111 8.9312101,15.959085 C 9.1534005,15.773213 9.3359185,15.507679 9.4787643,15.16248 C 9.6215985,14.817288 9.727406,14.401284 9.7961867,13.914466 C 9.8649551,13.418806 9.8993424,12.856757 9.8993486,12.228319 M 23.745677,21.794077 C 23.571084,21.794073 23.197322,21.559733 22.911652,21.400415 C 22.631253,21.241092 22.338105,21.055155 22.010111,20.754219 C 21.682099,20.462128 21.257772,20.110279 20.913907,19.676574 C 20.575315,19.251718 20.260538,18.760478 19.969575,18.202856 C 19.726211,18.38873 19.42995,18.548051 19.080792,18.680818 C 18.736912,18.822436 18.35336,18.893246 17.930136,18.893246 C 17.131285,18.893246 16.432956,18.725074 15.835148,18.38873 C 15.242623,18.043535 14.747974,17.512465 14.351198,16.79552 C 13.954418,16.078579 13.655513,15.166909 13.454479,14.06051 C 13.258735,12.94527 13.160863,11.622021 13.160863,10.090763 C 13.160863,8.7011397 13.266671,7.4531268 13.478286,6.3467201 C 13.6899,5.2314867 14.004677,4.2888386 14.422618,3.5187729 C 14.840555,2.7398863 15.356366,2.1424333 15.970052,1.7264121 C 16.589022,1.3104246 17.305867,1.1024225 18.120589,1.102405 C 18.887687,1.1024225 19.564854,1.27502 20.152093,1.6201981 C 20.744606,1.9654101 21.241901,2.4964795 21.643978,3.2134078 C 22.051327,3.9215156 22.358169,4.8199079 22.564504,5.9085873 C 22.776108,6.9972922 22.881915,8.2851354 22.881926,9.7721208 C 22.881915,10.54218 22.850173,11.267975 22.786699,11.949507 C 22.728495,12.622202 22.641203,13.246209 22.524826,13.821528 C 22.408427,14.396858 22.265587,14.923502 22.096306,15.401462 C 21.927004,15.879427 21.733906,16.299857 21.51701,16.662752 C 21.845003,17.140717 22.135973,17.503614 22.389921,17.751445 C 22.643849,17.999279 24.181289,19.223716 24.350591,19.347632 M 20.691711,9.9579952 C 20.691703,9.0640371 20.64938,8.2497308 20.564742,7.5150737 C 20.480088,6.7804389 20.334603,6.1520069 20.128286,5.6297757 C 19.927244,5.0987193 19.657436,4.6915661 19.318859,4.408315 C 18.980269,4.116241 18.557039,3.9701969 18.04917,3.9701823 C 17.535998,3.9701969 17.107478,4.1295178 16.763609,4.4481452 C 16.41973,4.7668009 16.141986,5.196082 15.930375,5.7359897 C 15.718756,6.275923 15.567981,6.9087807 15.478048,7.6345646 C 15.393399,8.3515191 15.351076,9.1082929 15.351079,9.9048882 C 15.351076,10.851971 15.393399,11.701682 15.478048,12.454024 C 15.56269,13.206378 15.70553,13.848087 15.906568,14.379152 C 16.107598,14.910226 16.377407,15.317378 16.715995,15.600612 C 17.054574,15.875002 17.480449,16.012194 17.993621,16.012191 C 18.506781,16.012194 18.9353,15.852873 19.279182,15.534229 C 19.623048,15.215591 19.900793,14.781883 20.112415,14.233107 C 20.324022,13.68434 20.472153,13.042632 20.556806,12.30798 C 20.646735,11.57334 20.691703,10.790013 20.691711,9.9579952 M 30.242719,17.449422 C 30.242711,18.166368 30.160711,18.843481 29.996716,19.480764 C 29.832707,20.126899 29.586705,20.693372 29.258709,21.180189 C 28.93599,21.667 28.525986,22.052025 28.028697,22.335266 C 27.536688,22.627351 26.960038,22.773394 26.298744,22.773398 C 25.928416,22.773394 25.589832,22.724713 25.282993,22.627354 C 24.98144,22.538839 24.714276,22.428199 24.481501,22.295435 C 24.254014,22.171516 23.464354,21.727023 23.310407,21.60105 C 23.145469,21.466083 23.860818,18.947405 23.987788,19.071321 C 24.114755,19.195238 24.254014,19.272763 24.449759,19.414381 C 24.650792,19.555999 24.883567,19.688766 25.148089,19.812684 C 25.417895,19.9366 25.724736,19.998557 26.068613,19.998558 C 26.35429,19.998557 26.605583,19.9366 26.822491,19.812684 C 27.044683,19.697618 27.232491,19.529446 27.385917,19.308167 C 27.539333,19.086888 27.653075,18.825779 27.727146,18.52484 C 27.806497,18.215049 27.846174,17.869854 27.846179,17.489252 C 27.846174,17.108655 27.795916,16.763461 27.695403,16.453666 C 27.600172,16.135028 27.457332,15.865068 27.266883,15.643785 C 27.081715,15.42251 26.851584,15.254338 26.576489,15.139268 C 26.301386,15.015356 25.983965,14.953399 25.624222,14.953394 L 24.775117,14.953394 C 24.69576,14.953399 24.62963,14.935697 24.576728,14.900287 C 24.529113,14.864887 24.492081,14.798503 24.46563,14.701136 C 24.439177,14.603777 24.420661,14.47101 24.410081,14.302833 C 24.399499,14.134666 24.394208,13.913388 24.39421,13.638996 C 24.394208,13.373467 24.399499,13.16104 24.410081,13.001713 C 24.425951,12.842398 24.447113,12.718482 24.473565,12.629963 C 24.500016,12.532607 24.534403,12.470649 24.576728,12.444089 C 24.624339,12.408691 24.682534,12.390989 24.75131,12.390982 L 25.608351,12.390982 C 25.915189,12.390989 26.187644,12.329031 26.425714,12.205107 C 26.663777,12.081198 26.862165,11.908601 27.020881,11.687314 C 27.179588,11.466043 27.301266,11.204934 27.385917,10.903986 C 27.470558,10.594204 27.512881,10.253435 27.512885,9.8816767 C 27.512881,9.580747 27.483784,9.29751 27.425595,9.031965 C 27.367395,8.7664406 27.280105,8.5363105 27.163721,8.3415742 C 27.052619,8.1468597 26.907133,7.9963901 26.727265,7.8901647 C 26.552679,7.7751112 26.34371,7.7175787 26.100356,7.717567 C 25.819963,7.7175787 25.55809,7.7883879 25.314735,7.929995 C 25.076666,8.0716249 24.862406,8.2265201 24.671955,8.3946811 C 24.48679,8.5540128 24.328079,8.7044826 24.195821,8.8460904 C 24.06356,8.9877196 23.968334,9.0585287 23.910141,9.0585184 C 23.878397,9.0585287 23.846656,9.045252 23.814914,9.0186882 C 23.788461,8.9832939 23.764655,8.9213359 23.743494,8.8328137 C 23.722331,8.7354616 23.703815,8.6026942 23.687945,8.4345113 C 23.677363,8.2663503 23.672073,8.0450714 23.672074,7.770674 C 23.672073,7.567109 23.674719,7.3945114 23.68001,7.2528809 C 23.685299,7.1024233 23.693235,6.9785072 23.703816,6.8811319 C 23.719687,6.7837817 23.738203,6.6996958 23.759365,6.6288738 C 23.785816,6.549226 23.825494,6.4651401 23.878398,6.3766156 C 23.936592,6.288117 24.045044,6.1642008 24.203757,6.0048667 C 24.367756,5.8367081 24.571436,5.6773872 24.814795,5.5269037 C 25.05815,5.3675968 25.33854,5.2348294 25.655964,5.1286013 C 25.973384,5.0135505 26.322548,4.956018 26.703458,4.9560035 C 27.200749,4.956018 27.63985,5.0533808 28.020762,5.248092 C 28.401663,5.4428316 28.72173,5.7260686 28.980964,6.0978038 C 29.240186,6.4607145 29.43593,6.9076978 29.568196,7.4387553 C 29.700449,7.9698365 29.766578,8.5761408 29.766585,9.2576696 C 29.766578,9.7798979 29.7269,10.266712 29.647551,10.718112 C 29.57348,11.169529 29.457091,11.572257 29.298387,11.926296 C 29.144959,12.271498 28.951861,12.572438 28.719091,12.829115 C 28.491599,13.076954 28.227081,13.262827 27.925534,13.386738 L 27.925534,13.413292 C 28.258823,13.466404 28.565664,13.599171 28.84606,13.811594 C 29.131734,14.024028 29.377736,14.307265 29.584067,14.661306 C 29.790385,15.006505 29.951741,15.418084 30.068136,15.896043 C 30.184517,16.365158 30.242711,16.88295 30.242719,17.449422"
       sodipodi:nodetypes="csssssssccssssssscccsssssssccsssssssssssssssccsssssssssssssssccssscssssssssssssssssscsscsssssssssssssssccssssssssssssssssssccsssssssccsssssssssssssssssssssssssssssssccsssc" />
  </g>
</svg>
