/* XPM */
static char *quake3[] = {
/* width height num_colors chars_per_pixel */
"    32    32      122            2",
/* colors */
".. c #6b1008",
".# c #6b1810",
".a c #6b2118",
".b c #6b2921",
".c c #6b3129",
".d c #731810",
".e c #732118",
".f c #732921",
".g c #733129",
".h c #733931",
".i c #733939",
".j c #734239",
".k c #734a4a",
".l c #7b1810",
".m c #7b2118",
".n c #7b2921",
".o c #7b4239",
".p c #7b4a4a",
".q c #7b524a",
".r c #7b5252",
".s c #7b5a5a",
".t c #7b6363",
".u c #7b6b6b",
".v c #7b7373",
".w c #842110",
".x c #842118",
".y c #842921",
".z c #843129",
".A c #843931",
".B c #844239",
".C c #844a42",
".D c #84524a",
".E c #845252",
".F c #845a5a",
".G c #846b63",
".H c #846b6b",
".I c #847373",
".J c #847b7b",
".K c #848484",
".L c #8c2118",
".M c #8c2921",
".N c #8c4239",
".O c #8c4a42",
".P c #8c5a52",
".Q c #8c635a",
".R c #8c6363",
".S c #8c6b6b",
".T c #8c7b7b",
".U c #8c8484",
".V c #8c848c",
".W c #8c8c8c",
".X c #942921",
".Y c #944a42",
".Z c #946363",
".0 c #946b63",
".1 c #947373",
".2 c #947b7b",
".3 c #948484",
".4 c #949494",
".5 c #9c5a5a",
".6 c #9c6363",
".7 c #9c6b63",
".8 c #9c736b",
".9 c #9c7b73",
"#. c #9c7b7b",
"## c #9c8c8c",
"#a c #9c9494",
"#b c #9c949c",
"#c c #9c9c9c",
"#d c #a55a52",
"#e c #a5736b",
"#f c #a57b73",
"#g c #a57b7b",
"#h c #a58484",
"#i c #a58c8c",
"#j c #a59c9c",
"#k c #a5a5a5",
"#l c #ad8c84",
"#m c #ad8c8c",
"#n c #ad9494",
"#o c #ada5a5",
"#p c #adadad",
"#q c #b59c9c",
"#r c #b5a5a5",
"#s c #b5adad",
"#t c #b5b5b5",
"#u c #bda5a5",
"#v c #bdadad",
"#w c #bdb5b5",
"#x c #bdbdbd",
"#y c #c69c9c",
"#z c #c6a59c",
"#A c #c6adad",
"#B c #c6b5ad",
"#C c #c6b5b5",
"#D c #c6bdbd",
"#E c #c6c6c6",
"#F c #ceb5b5",
"#G c #cec6c6",
"#H c #cecece",
"#I c #d6b5b5",
"#J c #d6bdbd",
"#K c #d6c6bd",
"#L c #d6cece",
"#M c #d6d6d6",
"#N c #decec6",
"#O c #decece",
"#P c #ded6ce",
"#Q c #ded6d6",
"#R c #dedede",
"#S c #e7d6d6",
"#T c #e7dede",
"#U c #e7e7e7",
"#V c #efe7e7",
"#W c #efefe7",
"#X c #efefef",
"#Y c #f7efef",
"#Z c #f7f7ef",
"#0 c #f7f7f7",
"#1 c #fff7f7",
"#2 c #fffff7",
"#3 c #ffffff",
/* pixels */
"#3#2#3#0#3#2#3#2#3#0#3#2#3#2#3#0#3#2#3#2#3#0#3#2#3#2#3#0#3#2#3#2",
"#3#2#3#2#3#0#3#2#3#2#3#0#3#2#Z#A#3#2#3#0#3#2#3#2#3#0#3#2#3#2#3#0",
"#3#2#3#0#3#3#2#3#0#3#3#2#3#3#X#l#U#0#3#2#3#3#0#3#2#3#3#2#3#0#3#3",
"#3#2#3#2#3#0#3#3#2#3#2#3#0#3#Y#e#G#0#3#2#3#2#3#3#0#3#2#3#2#3#0#3",
"#3#2#3#0#3#3#2#3#0#3#3#2#3#2#U.6#D#X#3#2#3#3#0#3#2#3#3#0#3#2#3#2",
"#3#2#3#2#3#0#3#2#3#2#3#3#0#3#Q#d#t#X#3#2#3#2#3#0#3#2#3#3#2#3#0#3",
"#3#2#3#0#3#3#2#3#0#3#2#3#3#2#H.Y#t#X#2#3#1#3#3#2#3#2#3#0#3#3#2#3",
"#3#2#3#2#3#0#3#3#2#3#2#3#0#3#G.N#s#X#3#2#3#2#3#3#0#3#2#3#2#3#3#0",
"#3#2#3#0#3#3#2#3#0#3#3#2#3#2#A.A#o#W#3#0#3#3#2#3#2#3#3#0#3#2#3#2",
"#3#Z#O#s#R#2#3#2#3#2#3#3#0#3#r.z#k#U#2#3#0#3#2#3#2#T#F#L#X#2#3#0",
"#O.2#B#V#X#X#3#2#3#3#0#3#2#3#n.m#a#U#2#3#3#0#3#2#3#3#X#C#.#u#2#3",
".D#Q#M#H#M#Z#3#3#0#3#2#3#2#3#h.x.W#R#3#2#3#2#3#3#0#3#Z#R#D.C#M#0",
".7.D#n#R#1#3#2#3#2#3#0#3#3#1#f.x.W#R#2#3#1#3#2#3#2#0#X#F.5.o#s#U",
"#V.R.b.f.C.7#i#y#F#K#N#O#P#X.8.w.K#D#O#N#J#I#z#h.7.C.f.f.P#v#k#R",
"#3#R#a.s.h.a.#...d.d.m.y.n#A.Z.x.I.D.y.m.e.#...#.a.i.t###a#c#x#Y",
"#3#1#W#E#k.T.H.k.j.j.h.y.m.1.C.L.v.o.l.a.b.h.k.u.v.J.W#c#t#M#0#3",
"#3#2#3#0#Z#R#E#t#b#a.W.H.y.t.p.X.J.o.g.v.J.V.W.4#o#x#M#V#0#3#2#3",
"#3#2#3#2#3#3#1#0#X#U#R#r.n.I.q.M.J.p.g.U#t#M#R#V#0#0#2#3#2#3#2#3",
"#3#2#3#0#3#2#3#2#3#2#3#N.z.J.E.x.K.D.h.4#T#3#2#3#2#3#2#3#0#3#3#2",
"#3#2#3#2#3#3#0#3#2#3#2#O.A.K.Q.m.K.F.o#a#U#3#2#3#0#3#3#2#3#2#3#0",
"#3#2#3#0#3#2#3#3#2#3#0#S.B.U.T.d.4.0.p#c#X#3#2#3#2#3#0#3#3#2#3#2",
"#3#2#3#2#3#3#0#3#2#3#3#S.O.4.3.e.4#g.r#p#X#3#2#3#0#3#3#2#3#0#3#3",
"#3#2#3#0#3#2#3#2#3#0#3#T.C#a.4.b.4#h.G#s#Z#3#3#2#3#0#3#2#3#2#3#2",
"#3#2#3#2#3#3#0#3#2#3#2#U.F#j#o.c.4#m.T#w#0#3#0#3#2#3#3#2#3#0#3#3",
"#3#2#3#0#3#2#3#3#2#3#0#Y.S#o#t.j#j#q###x#0#3#2#3#3#0#3#2#3#3#2#3",
"#3#2#3#2#3#3#0#3#2#3#3#0.9#w#G.p#k#r#o#E#0#3#2#3#2#3#0#3#2#3#2#3",
"#3#2#3#0#3#2#3#2#3#0#3#2#n#E#Q.Q#p#w#x#G#0#3#2#3#3#2#3#0#3#3#2#3",
"#3#2#3#2#3#3#0#3#2#3#3#2#R#H#T.3#t#R#T#R#2#3#2#3#0#3#3#2#3#2#3#0",
"#3#2#3#0#3#2#3#3#2#3#0#3#2#U#U#s#D#0#0#W#3#3#0#3#2#3#2#3#3#0#3#2",
"#3#2#3#2#3#3#0#3#2#3#3#2#3#2#3#X#E#0#3#2#3#0#3#3#2#3#0#3#2#3#3#0",
"#3#2#3#0#3#2#3#2#3#0#3#2#3#3#0#3#W#2#3#0#3#3#2#3#0#3#3#2#3#0#3#2",
"#3#2#3#2#3#3#0#3#2#3#3#2#3#0#3#2#3#3#0#3#2#3#2#3#2#3#0#3#3#2#3#2"
};
